<svg width="110" height="110" viewBox="0 0 110 110" fill="none" xmlns="http://www.w3.org/2000/svg">
<path d="M0 55C0 9.7075 9.7075 0 55 0C100.292 0 110 9.7075 110 55C110 100.292 100.292 110 55 110C9.7075 110 0 100.292 0 55Z" fill="white"/>
<path d="M26 86.1176C26 89.9187 29.0813 93 32.8824 93H70.3529L88.7059 75.1176V42.3333L62.7059 17H32.8823C29.0813 17 26 20.0813 26 23.8824V86.1176Z" fill="#85BAFF"/>
<path d="M62.7061 17L88.7061 42.3333H69.5884C65.7874 42.3333 62.7061 39.331 62.7061 35.6274V17Z" fill="#529EFF"/>
<path d="M88.706 75.1177L70.353 93L70.353 81.8236C70.353 78.12 73.4344 75.1177 77.2354 75.1177L88.706 75.1177Z" fill="#0069F2"/>
</svg>
