<svg width="800" height="800" viewBox="0 0 800 800" fill="none" xmlns="http://www.w3.org/2000/svg">
<path d="M0 400C0 70.6 70.6 0 400 0C729.4 0 800 70.6 800 400C800 729.4 729.4 800 400 800C70.6 800 0 729.4 0 400Z" fill="#259393"/>
<path d="M0 400C0 70.6 70.6 0 400 0C729.4 0 800 70.6 800 400C800 729.4 729.4 800 400 800C70.6 800 0 729.4 0 400Z" fill="url(#paint0_linear_196_3550)" style="mix-blend-mode:soft-light"/>
<path d="M181.816 626.312C181.816 653.955 204.226 676.365 231.87 676.365H504.383L637.859 546.312V307.88L448.768 123.638H231.87C204.226 123.638 181.816 146.048 181.816 173.691V626.312Z" fill="white"/>
<path d="M448.77 123.637L637.86 307.879H498.823C471.179 307.879 448.77 286.044 448.77 259.109V123.637Z" fill="#95DADA"/>
<path d="M637.859 546.311L504.383 676.364L504.383 595.081C504.383 568.146 526.793 546.311 554.436 546.311L637.859 546.311Z" fill="#4DC1C1"/>
<defs>
<linearGradient id="paint0_linear_196_3550" x1="400" y1="0" x2="400" y2="800" gradientUnits="userSpaceOnUse">
<stop stop-color="white"/>
<stop offset="1" stop-color="white" stop-opacity="0"/>
</linearGradient>
</defs>
</svg>
