<svg width="800" height="800" viewBox="0 0 800 800" fill="none" xmlns="http://www.w3.org/2000/svg">
<path d="M0 400C0 70.6 70.6 0 400 0C729.4 0 800 70.6 800 400C800 729.4 729.4 800 400 800C70.6 800 0 729.4 0 400Z" fill="#8A50FD"/>
<path d="M0 400C0 70.6 70.6 0 400 0C729.4 0 800 70.6 800 400C800 729.4 729.4 800 400 800C70.6 800 0 729.4 0 400Z" fill="url(#paint0_linear_195_239)" style="mix-blend-mode:soft-light"/>
<path d="M647.275 396.907C647.275 266.067 540.486 160 408.756 160C395.535 160 382.566 161.069 369.931 163.124C358.325 165.012 351.29 176.447 353.776 187.864L355.579 196.146C358.223 208.289 370.561 215.638 382.95 213.929C391.384 212.765 399.999 212.163 408.756 212.163C511.481 212.163 594.757 294.876 594.757 396.907C594.757 403.799 594.374 410.601 593.629 417.296C592.291 429.302 599.583 441.05 611.451 443.687L619.965 445.576C631.704 448.184 643.469 440.898 645.091 429.059C646.531 418.546 647.275 407.812 647.275 396.907ZM555.373 396.907C555.373 316.483 489.731 251.286 408.76 251.285C396.893 251.285 389.078 262.677 391.651 274.183L394.066 284.982C396.488 295.811 406.816 302.8 417.919 304.004C459.228 308.486 494.408 340.985 501.53 381.862C503.321 392.143 510.222 401.413 520.476 403.678L540.564 408.114C548.057 409.768 555.373 404.531 555.373 396.907Z" fill="#D9BAFF"/>
<path d="M267.225 221.201C291.839 221.201 313.15 238.182 318.491 262.047L336.095 340.703C338.692 352.307 335.14 364.426 326.68 372.834L311.584 387.836C305.766 393.618 304.744 402.679 309.52 409.337C328.416 435.683 351.6 458.72 378.121 477.495C384.826 482.242 393.954 481.223 399.777 475.44L414.876 460.443C423.341 452.035 435.544 448.507 447.23 451.087L526.422 468.568C550.448 473.873 567.54 495.04 567.541 519.487V634.158C567.541 645.561 558.234 654.806 546.753 654.806C466.725 654.941 388.375 632.019 321.2 588.817C271.666 556.977 229.484 515.075 197.427 465.876C153.931 399.155 130.849 321.336 130.985 241.849C130.985 230.446 140.293 221.202 151.773 221.201H267.225Z" fill="white"/>
<defs>
<linearGradient id="paint0_linear_195_239" x1="400" y1="0" x2="400" y2="800" gradientUnits="userSpaceOnUse">
<stop stop-color="white"/>
<stop offset="1" stop-color="white" stop-opacity="0"/>
</linearGradient>
</defs>
</svg>
