<svg width="110" height="110" viewBox="0 0 110 110" fill="none" xmlns="http://www.w3.org/2000/svg">
<path d="M0 55C0 9.7075 9.7075 0 55 0C100.292 0 110 9.7075 110 55C110 100.292 100.292 110 55 110C9.7075 110 0 100.292 0 55Z" fill="#7D23F2"/>
<path d="M36.7433 30.4152C40.1278 30.4152 43.058 32.75 43.7924 36.0315L46.213 46.8467C46.57 48.4422 46.0816 50.1086 44.9184 51.2647L42.8427 53.3275C42.0427 54.1225 41.9023 55.3684 42.5589 56.2839C45.1571 59.9065 48.3449 63.074 51.9915 65.6556C52.9134 66.3083 54.1686 66.1682 54.9692 65.3731L57.0454 63.3109C58.2093 62.1549 59.8873 61.6698 61.494 62.0245L72.3829 64.4281C75.6865 65.1575 78.0367 68.0681 78.0368 71.4295V87.1968C78.0368 88.7647 76.7571 90.0358 75.1784 90.0358C64.1746 90.0544 53.4015 86.9027 44.165 80.9623C37.354 76.5844 31.554 70.8229 27.1462 64.058C21.1654 54.8839 17.9916 44.1838 18.0103 33.2543C18.0103 31.6864 19.2902 30.4153 20.8687 30.4152H36.7433Z" fill="white"/>
<path d="M56.2039 22C74.3168 22 89.0003 36.5842 89.0003 54.5747C89.0003 56.0742 88.898 57.55 88.7 58.9956C88.4769 60.6234 86.8593 61.6254 85.2451 61.2667L84.0745 61.007C82.4426 60.6444 81.44 59.029 81.6239 57.3781C81.7265 56.4577 81.7791 55.5223 81.7791 54.5747C81.7791 40.5454 70.3287 29.1724 56.2039 29.1724C54.9998 29.1724 53.8152 29.2552 52.6555 29.4152C50.9521 29.6502 49.2556 28.6398 48.8921 26.9701L48.6441 25.8314C48.3024 24.2615 49.2697 22.6892 50.8655 22.4296C52.6028 22.147 54.3861 22 56.2039 22Z" fill="white"/>
<path d="M56.2045 34.5517C67.338 34.5519 76.3637 43.5164 76.3637 54.5747C76.3637 55.623 75.3578 56.343 74.3275 56.1156L71.5654 55.5057C70.1555 55.1942 69.2067 53.9197 68.9603 52.5061C67.9811 46.8854 63.1439 42.4168 57.4638 41.8006C55.9372 41.635 54.5171 40.6741 54.1841 39.1851L53.852 37.7001C53.4982 36.118 54.5728 34.5517 56.2045 34.5517Z" fill="white"/>
</svg>
