<svg width="800" height="800" viewBox="0 0 800 800" fill="none" xmlns="http://www.w3.org/2000/svg">
<path d="M0 400C0 70.6 70.6 0 400 0C729.4 0 800 70.6 800 400C800 729.4 729.4 800 400 800C70.6 800 0 729.4 0 400Z" fill="#259393"/>
<path d="M0 400C0 70.6 70.6 0 400 0C729.4 0 800 70.6 800 400C800 729.4 729.4 800 400 800C70.6 800 0 729.4 0 400Z" fill="url(#paint0_linear_195_253)" style="mix-blend-mode:soft-light"/>
<path d="M371.478 502.959C380.456 502.959 387.734 510.238 387.734 519.216V589.662C387.734 598.64 380.456 605.918 371.478 605.918H268.519C259.54 605.918 252.262 598.64 252.262 589.662V519.216C252.262 510.238 259.54 502.959 268.519 502.959H371.478Z" fill="white"/>
<path d="M539.463 502.959C548.442 502.959 555.72 510.238 555.72 519.216V589.662C555.72 598.64 548.442 605.918 539.463 605.918H436.504C427.526 605.918 420.248 598.64 420.248 589.662V519.216C420.248 510.238 427.526 502.959 436.504 502.959H539.463Z" fill="white"/>
<path d="M371.478 367.487C380.456 367.487 387.734 374.765 387.734 383.744V454.189C387.734 463.168 380.456 470.446 371.478 470.446H268.519C259.54 470.446 252.262 463.168 252.262 454.189V383.744C252.262 374.765 259.54 367.487 268.519 367.487H371.478Z" fill="white"/>
<path d="M539.463 367.487C548.442 367.487 555.72 374.765 555.72 383.744V454.189C555.72 463.168 548.442 470.446 539.463 470.446H436.504C427.526 470.446 420.248 463.168 420.248 454.189V383.744C420.248 374.765 427.526 367.487 436.504 367.487H539.463Z" fill="white"/>
<path fill-rule="evenodd" clip-rule="evenodd" d="M611.058 238.583C620.731 248.256 626.166 261.376 626.166 275.056V627.594C626.166 654.529 604.331 676.364 577.396 676.364H230.586C203.652 676.364 181.816 654.529 181.816 627.594V172.407C181.816 145.472 203.652 123.637 230.586 123.637H474.747C488.427 123.637 501.547 129.071 511.22 138.744L611.058 238.583ZM246.843 334.974C231.879 334.974 219.749 347.104 219.749 362.068V611.337C219.749 626.301 231.879 638.432 246.843 638.432H561.139C576.103 638.432 588.234 626.301 588.234 611.337V362.068C588.234 347.104 576.103 334.974 561.139 334.974H246.843Z" fill="white"/>
<path d="M626.167 253.693L496.113 123.64L496.113 204.923C496.113 231.858 517.948 253.693 544.883 253.693L626.167 253.693Z" fill="#95DADA"/>
<defs>
<linearGradient id="paint0_linear_195_253" x1="400" y1="0" x2="400" y2="800" gradientUnits="userSpaceOnUse">
<stop stop-color="white"/>
<stop offset="1" stop-color="white" stop-opacity="0"/>
</linearGradient>
</defs>
</svg>
