<svg width="110" height="110" viewBox="0 0 110 110" fill="none" xmlns="http://www.w3.org/2000/svg">
<path d="M0 55C0 9.7075 9.7075 0 55 0C100.292 0 110 9.7075 110 55C110 100.292 100.292 110 55 110C9.7075 110 0 100.292 0 55Z" fill="#278C59"/>
<path d="M51.0784 69.1569C52.3129 69.1569 53.3137 70.1576 53.3137 71.3922V81.0784C53.3137 82.313 52.3129 83.3137 51.0784 83.3137H36.9216C35.687 83.3137 34.6863 82.313 34.6863 81.0784V71.3922C34.6863 70.1576 35.687 69.1569 36.9216 69.1569H51.0784Z" fill="#D4E8DE"/>
<path d="M74.1765 69.1569C75.411 69.1569 76.4118 70.1576 76.4118 71.3922V81.0784C76.4118 82.313 75.411 83.3137 74.1765 83.3137H60.0196C58.7851 83.3137 57.7843 82.313 57.7843 81.0784V71.3922C57.7843 70.1576 58.7851 69.1569 60.0196 69.1569H74.1765Z" fill="#D4E8DE"/>
<path d="M51.0784 50.5294C52.3129 50.5294 53.3137 51.5302 53.3137 52.7647V62.451C53.3137 63.6855 52.3129 64.6863 51.0784 64.6863H36.9216C35.687 64.6863 34.6863 63.6855 34.6863 62.451V52.7647C34.6863 51.5302 35.687 50.5294 36.9216 50.5294H51.0784Z" fill="#D4E8DE"/>
<path d="M74.1765 50.5294C75.411 50.5294 76.4118 51.5302 76.4118 52.7647V62.451C76.4118 63.6855 75.411 64.6863 74.1765 64.6863H60.0196C58.7851 64.6863 57.7843 63.6855 57.7843 62.451V52.7647C57.7843 51.5302 58.7851 50.5294 60.0196 50.5294H74.1765Z" fill="#D4E8DE"/>
<path fill-rule="evenodd" clip-rule="evenodd" d="M86.098 34.8824V86.2941C86.098 89.9977 83.0957 93 79.3922 93H31.7059C28.0023 93 25 89.9977 25 86.2941V23.7059C25 20.0023 28.0023 17 31.7059 17H68.2157L86.098 34.8824ZM33.9412 46.0588C31.8836 46.0588 30.2157 47.7268 30.2157 49.7843V84.0588C30.2157 86.1164 31.8836 87.7843 33.9412 87.7843H77.1569C79.2144 87.7843 80.8823 86.1164 80.8823 84.0588V49.7843C80.8823 47.7268 79.2144 46.0588 77.1569 46.0588H33.9412Z" fill="#D4E8DE"/>
<path d="M86.0982 34.8823L68.2158 17L68.2158 28.1764C68.2158 31.88 71.2181 34.8823 74.9217 34.8823L86.0982 34.8823Z" fill="white"/>
</svg>
