<svg width="800" height="800" viewBox="0 0 800 800" fill="none" xmlns="http://www.w3.org/2000/svg">
<path d="M0 400C0 70.6 70.6 0 400 0C729.4 0 800 70.6 800 400C800 729.4 729.4 800 400 800C70.6 800 0 729.4 0 400Z" fill="#40B7FC"/>
<path d="M0 400C0 70.6 70.6 0 400 0C729.4 0 800 70.6 800 400C800 729.4 729.4 800 400 800C70.6 800 0 729.4 0 400Z" fill="url(#paint0_linear_195_258)" style="mix-blend-mode:soft-light"/>
<path fill-rule="evenodd" clip-rule="evenodd" d="M138.184 290.674C138.184 275.651 149.671 269.562 163.842 277.072L362.279 382.257C376.449 389.77 387.933 408.036 387.935 423.059V633.429C387.934 648.451 376.449 654.54 362.279 647.031L320.786 625.036C306.616 617.523 295.129 599.257 295.128 584.234V459.926C295.127 451.712 288.846 441.724 281.1 437.618L163.842 375.462C149.671 367.95 138.184 349.681 138.184 334.658V290.674Z" fill="white"/>
<path fill-rule="evenodd" clip-rule="evenodd" d="M392.007 129.27C406.179 121.759 429.153 121.759 443.324 129.27L641.758 234.455C655.928 241.967 655.927 254.143 641.758 261.655L600.268 283.65C586.097 291.162 563.123 291.161 548.952 283.65L431.697 221.498C423.948 217.391 411.385 217.39 403.638 221.495L286.38 283.65C272.208 291.161 249.234 291.161 235.063 283.65L193.573 261.658C179.402 254.146 179.402 241.967 193.573 234.455L392.007 129.27Z" fill="white"/>
<path fill-rule="evenodd" clip-rule="evenodd" d="M436.222 574.372C436.308 574.32 436.394 574.266 436.481 574.215C436.547 574.176 436.614 574.139 436.681 574.101C436.527 574.189 436.374 574.28 436.222 574.372Z" fill="#81D0FD"/>
<path d="M661.598 309.511C661.597 294.488 650.11 288.398 635.94 295.909L594.447 317.901C580.276 325.413 568.789 343.683 568.788 358.706V483.017C568.788 491.23 562.507 501.218 554.76 505.325L437.502 567.481C423.332 574.992 411.845 593.262 411.844 608.285V652.272C411.844 667.296 423.331 673.386 437.502 665.874L635.94 560.689C650.111 553.177 661.598 534.908 661.598 519.884V309.511Z" fill="#A8E4FE"/>
<defs>
<linearGradient id="paint0_linear_195_258" x1="400" y1="0" x2="400" y2="800" gradientUnits="userSpaceOnUse">
<stop stop-color="white"/>
<stop offset="1" stop-color="white" stop-opacity="0"/>
</linearGradient>
</defs>
</svg>
