<svg width="110" height="110" viewBox="0 0 110 110" fill="none" xmlns="http://www.w3.org/2000/svg">
<path d="M0 55C0 9.7075 9.7075 0 55 0C100.292 0 110 9.7075 110 55C110 100.292 100.292 110 55 110C9.7075 110 0 100.292 0 55Z" fill="#0D6EFD"/>
<path fill-rule="evenodd" clip-rule="evenodd" d="M19 39.9676C19.0001 37.902 20.5796 37.0647 22.528 38.0974L49.8132 52.5603C51.7615 53.5933 53.3406 56.1049 53.3408 58.1706V87.0965C53.3407 89.162 51.7616 89.9993 49.8132 88.9667L44.1079 85.9424C42.1594 84.9094 40.58 82.3978 40.5799 80.3321V63.2398C40.5797 62.1103 39.716 60.737 38.6511 60.1724L22.528 51.626C20.5795 50.5931 19 48.0811 19 46.0154V39.9676Z" fill="white"/>
<path fill-rule="evenodd" clip-rule="evenodd" d="M53.9007 17.7746C55.8493 16.7418 59.0083 16.7418 60.9568 17.7746L88.2415 32.2375C90.1898 33.2704 90.1897 34.9446 88.2415 35.9775L82.5367 39.0019C80.5881 40.0347 77.4292 40.0346 75.4806 39.0019L59.358 30.4559C58.2926 29.8912 56.5651 29.891 55.5 30.4555L39.3769 39.0019C37.4284 40.0347 34.2695 40.0346 32.3209 39.0019L26.6161 35.978C24.6675 34.945 24.6675 33.2704 26.6161 32.2375L53.9007 17.7746Z" fill="white"/>
<path fill-rule="evenodd" clip-rule="evenodd" d="M87.4417 40.6875C89.3901 39.6547 90.9696 40.4921 90.9697 42.5577V71.484C90.9697 73.5497 89.3902 76.0617 87.4417 77.0946L60.1565 91.5576C58.208 92.5905 56.6285 91.7531 56.6285 89.6874V83.6392C56.6287 81.5735 58.2081 79.0613 60.1565 78.0285L76.2795 69.4821C77.3447 68.9174 78.2083 67.5441 78.2083 66.4148V49.322C78.2085 47.2564 79.788 44.7442 81.7364 43.7113L87.4417 40.6875ZM59.9802 78.976C59.9921 78.9689 60.0039 78.9615 60.0159 78.9545C60.025 78.9492 60.0342 78.944 60.0434 78.9388C60.0222 78.9509 60.0012 78.9635 59.9802 78.976Z" fill="#85BAFF"/>
</svg>
