<svg width="800" height="800" viewBox="0 0 800 800" fill="none" xmlns="http://www.w3.org/2000/svg">
<path d="M0 400C0 70.6 70.6 0 400 0C729.4 0 800 70.6 800 400C800 729.4 729.4 800 400 800C70.6 800 0 729.4 0 400Z" fill="#8A50FD"/>
<path d="M0 400C0 70.6 70.6 0 400 0C729.4 0 800 70.6 800 400C800 729.4 729.4 800 400 800C70.6 800 0 729.4 0 400Z" fill="url(#paint0_linear_195_222)" style="mix-blend-mode:soft-light"/>
<path d="M429.594 331.929C313.495 331.929 288.611 353.184 288.611 452.351V459.377C288.611 558.544 313.495 579.799 429.594 579.799H488.29L590.776 617.613C596.697 619.797 602.983 615.417 602.983 609.106V569.039C641.082 554.614 651.348 523.066 651.348 459.377V452.351C651.347 353.184 626.464 331.929 510.365 331.929H429.594Z" fill="#D1B2FF"/>
<path d="M400.73 218.157C541.682 218.157 571.893 243.962 571.893 364.359V372.888C571.893 493.285 541.682 519.09 400.73 519.09H329.468L205.042 565C197.854 567.651 190.222 562.333 190.222 554.671V506.027C143.967 488.514 131.504 450.212 131.504 372.888V364.359C131.504 243.962 161.715 218.157 302.667 218.157H400.73Z" fill="white"/>
<path d="M626.679 240.902C646.998 240.902 663.471 257.333 663.471 277.6C663.471 297.868 646.998 314.298 626.679 314.298C606.359 314.298 589.887 297.868 589.887 277.6C589.887 257.333 606.359 240.902 626.679 240.902Z" fill="#D1B2FF"/>
<path d="M570.522 182.958C583.356 182.958 593.759 193.335 593.759 206.136C593.759 218.936 583.356 229.313 570.522 229.313C557.689 229.313 547.285 218.936 547.285 206.136C547.285 193.335 557.689 182.958 570.522 182.958Z" fill="#D1B2FF"/>
<defs>
<linearGradient id="paint0_linear_195_222" x1="400" y1="0" x2="400" y2="800" gradientUnits="userSpaceOnUse">
<stop stop-color="white"/>
<stop offset="1" stop-color="white" stop-opacity="0"/>
</linearGradient>
</defs>
</svg>
