<svg width="110" height="110" viewBox="0 0 110 110" fill="none" xmlns="http://www.w3.org/2000/svg">
<path d="M0 55C0 9.7075 9.7075 0 55 0C100.292 0 110 9.7075 110 55C110 100.292 100.292 110 55 110C9.7075 110 0 100.292 0 55Z" fill="#FA386C"/>
<path d="M85.995 30.2451C90.9502 30.2451 94.9672 34.2621 94.9672 39.2174V40.726C94.9672 42.3124 93.7994 43.6246 92.3418 44.2507C88.1293 46.0604 85.1794 50.2472 85.1794 55.1227C85.1794 59.9982 88.1294 64.1844 92.3418 65.9939C93.7994 66.62 94.9672 67.9323 94.9672 69.5186V71.0281C94.9672 75.9833 90.9502 80.0003 85.995 80.0003H68.8662V30.2451L85.995 30.2451Z" fill="#FED7E2"/>
<path fill-rule="evenodd" clip-rule="evenodd" d="M70.4974 30.2451C75.4526 30.2451 79.4696 34.2621 79.4696 39.2174V71.0281C79.4696 75.9833 75.4526 80.0003 70.4974 80.0003H24.0049C19.0497 80.0003 15.0327 75.9833 15.0327 71.0281V69.5186C15.0327 67.9323 16.2005 66.62 17.6581 65.9939C21.8706 64.1844 24.8206 59.9982 24.8206 55.1227C24.8206 50.2472 21.8706 46.0604 17.6581 44.2507C16.2006 43.6246 15.0327 42.3124 15.0327 40.726V39.2174C15.0327 34.2621 19.0497 30.2451 24.0049 30.2451H70.4974ZM52.0718 44.4331C51.5814 42.9166 49.4462 42.9166 48.9558 44.4331L47.4798 48.9981C47.2605 49.6762 46.6313 50.1354 45.9217 50.1356H41.1441C39.5571 50.1356 38.8972 52.1766 40.1811 53.1138L44.0459 55.9352C44.62 56.3543 44.8602 57.097 44.6409 57.7752L43.1649 62.341C42.6748 63.8574 44.4021 65.1182 45.686 64.181L49.5508 61.3596C50.125 60.9405 50.9026 60.9405 51.4768 61.3596L55.3416 64.181C56.6255 65.1182 58.3528 63.8574 57.8627 62.341L56.3867 57.7752C56.1674 57.097 56.4076 56.3543 56.9817 55.9352L60.8465 53.1138C62.1304 52.1766 61.4705 50.1356 59.8835 50.1356H55.1059C54.3963 50.1354 53.7671 49.6762 53.5478 48.9981L52.0718 44.4331Z" fill="white" fill-opacity="0.980392"/>
</svg>
