<svg width="800" height="800" viewBox="0 0 800 800" fill="none" xmlns="http://www.w3.org/2000/svg">
<path d="M0 400C0 70.6 70.6 0 400 0C729.4 0 800 70.6 800 400C800 729.4 729.4 800 400 800C70.6 800 0 729.4 0 400Z" fill="url(#paint0_linear_194_137)"/>
<path d="M625.417 219.964C661.455 219.964 690.669 249.179 690.669 285.217V296.189C690.669 307.726 682.176 317.269 671.576 321.823C640.939 334.984 619.485 365.434 619.485 400.892C619.485 436.35 640.939 466.795 671.576 479.955C682.176 484.509 690.669 494.052 690.669 505.589V516.567C690.669 552.605 661.455 581.82 625.417 581.82H500.844V219.964L625.417 219.964Z" fill="#8ACBFF"/>
<path fill-rule="evenodd" clip-rule="evenodd" d="M512.708 219.964C548.746 219.964 577.96 249.179 577.96 285.217V516.567C577.96 552.605 548.746 581.82 512.708 581.82H174.581C138.543 581.82 109.328 552.605 109.328 516.567V505.589C109.328 494.052 117.821 484.509 128.422 479.955C159.058 466.795 180.513 436.35 180.513 400.892C180.513 365.434 159.058 334.984 128.422 321.823C117.821 317.269 109.328 307.726 109.328 296.189V285.217C109.328 249.179 138.543 219.964 174.581 219.964H512.708ZM378.704 323.149C375.137 312.12 359.608 312.12 356.041 323.149L345.307 356.349C343.712 361.281 339.136 364.621 333.976 364.622H299.229C287.687 364.622 282.888 379.466 292.225 386.282L320.333 406.801C324.509 409.849 326.255 415.25 324.66 420.183L313.926 453.388C310.361 464.417 322.924 473.586 332.261 466.77L360.369 446.251C364.544 443.203 370.2 443.203 374.376 446.251L402.484 466.77C411.821 473.586 424.383 464.417 420.819 453.388L410.084 420.183C408.489 415.25 410.236 409.849 414.412 406.801L442.519 386.282C451.857 379.466 447.057 364.622 435.516 364.622H400.769C395.609 364.62 391.033 361.281 389.438 356.349L378.704 323.149Z" fill="white" fill-opacity="0.980392"/>
<defs>
<linearGradient id="paint0_linear_194_137" x1="400" y1="800" x2="400" y2="0" gradientUnits="userSpaceOnUse">
<stop stop-color="#0D6EFD"/>
<stop offset="1" stop-color="#19ACFF"/>
</linearGradient>
</defs>
</svg>
