<svg width="110" height="110" viewBox="0 0 110 110" fill="none" xmlns="http://www.w3.org/2000/svg">
<path d="M0 55C0 9.7075 9.7075 0 55 0C100.292 0 110 9.7075 110 55C110 100.292 100.292 110 55 110C9.7075 110 0 100.292 0 55Z" fill="#7A2BC1"/>
<path d="M64.5898 28.7358C64.7422 30.7349 65.214 32.7001 65.9905 34.5558C66.9494 36.8475 68.354 38.9272 70.1217 40.6755C71.1395 41.6886 72.2324 42.5544 73.3782 43.2789L57.0973 60.857V82.0414H63.7648C65.2173 82.0414 66.3948 83.1515 66.3948 84.5208C66.3948 85.8901 65.2173 87.0001 63.7648 87.0001H39.8927C38.4402 87.0001 37.2627 85.8901 37.2627 84.5208C37.2627 83.1515 38.4402 82.0414 39.8927 82.0414H46.5602V60.857L20.6652 32.8997C19.1953 31.3126 20.3208 28.7358 22.4842 28.7358H64.5898Z" fill="#CAAAE6"/>
<path d="M79.7281 13.9414C79.8374 13.6967 79.8729 13.4258 79.8302 13.1614C79.7876 12.8971 79.6686 12.6508 79.4877 12.4526C79.3069 12.2544 79.0721 12.1128 78.8118 12.045C78.5515 11.9772 78.2771 11.9862 78.0219 12.0709C76.0076 12.739 74.4012 14.0546 72.928 15.5206C71.447 16.9834 70.2716 18.7234 69.4695 20.6404C68.6674 22.5573 68.2544 24.6133 68.2544 26.6898C68.2544 28.7663 68.6674 30.8222 69.4695 32.7392C70.2716 34.6561 71.447 36.3961 72.928 37.859C79.1954 44.0972 88.8948 43.741 95.0901 37.576C96.5633 36.1099 97.884 34.5114 98.5554 32.5056C98.6377 32.259 98.6485 31.9943 98.5864 31.7419C98.5243 31.4895 98.3919 31.2597 98.2044 31.0789C98.0168 30.898 97.7818 30.7735 97.5264 30.7197C97.2709 30.6659 97.0054 30.6849 96.7603 30.7745C91.7802 32.5995 86.1135 31.7878 82.2875 27.9791C78.4491 24.1594 77.6695 18.5493 79.7281 13.9414Z" fill="white"/>
</svg>
