<svg width="800" height="800" viewBox="0 0 800 800" fill="none" xmlns="http://www.w3.org/2000/svg">
<path d="M0 400C0 70.6 70.6 0 400 0C729.4 0 800 70.6 800 400C800 729.4 729.4 800 400 800C70.6 800 0 729.4 0 400Z" fill="url(#paint0_linear_194_119)"/>
<path d="M469.743 208.992C470.851 223.531 474.282 237.823 479.929 251.32C486.903 267.986 497.119 283.111 509.974 295.826C517.377 303.194 525.325 309.491 533.658 314.76L415.252 442.6V596.669H463.742C474.306 596.669 482.87 604.742 482.87 614.701C482.87 624.659 474.306 632.732 463.742 632.732H290.128C279.564 632.732 271 624.659 271 614.701C271 604.742 279.564 596.669 290.128 596.669H338.618V442.6L150.291 239.275C139.6 227.732 147.786 208.992 163.52 208.992H469.743Z" fill="#8ACBFF"/>
<path d="M579.84 101.392C580.635 99.6134 580.893 97.6427 580.583 95.7203C580.272 93.7979 579.407 92.0068 578.092 90.5651C576.777 89.1235 575.069 88.0935 573.176 87.6005C571.283 87.1076 569.287 87.173 567.431 87.7888C552.782 92.648 541.099 102.216 530.385 112.878C519.614 123.516 511.065 136.171 505.232 150.113C499.398 164.054 496.395 179.006 496.395 194.108C496.395 209.21 499.398 224.162 505.232 238.104C511.065 252.045 519.614 264.7 530.385 275.339C575.966 320.708 646.507 318.117 691.563 273.28C702.278 262.618 711.882 250.993 716.765 236.405C717.364 234.612 717.442 232.687 716.991 230.851C716.539 229.015 715.576 227.344 714.212 226.029C712.849 224.714 711.14 223.808 709.282 223.417C707.424 223.025 705.493 223.163 703.71 223.815C667.491 237.088 626.279 231.184 598.454 203.485C570.538 175.706 564.868 134.905 579.84 101.392Z" fill="white"/>
<defs>
<linearGradient id="paint0_linear_194_119" x1="400" y1="800" x2="400" y2="0" gradientUnits="userSpaceOnUse">
<stop stop-color="#0D6EFD"/>
<stop offset="1" stop-color="#19ACFF"/>
</linearGradient>
</defs>
</svg>
