<svg width="110" height="110" viewBox="0 0 110 110" fill="none" xmlns="http://www.w3.org/2000/svg">
<path d="M0 55C0 9.7075 9.7075 0 55 0C100.292 0 110 9.7075 110 55C110 100.292 100.292 110 55 110C9.7075 110 0 100.292 0 55Z" fill="#E65151"/>
<rect x="20.9668" y="72.687" width="68.0668" height="10.3131" rx="5.15657" fill="white"/>
<path d="M86.4648 65.1245C86.7617 67.3834 84.8654 69.2402 82.5871 69.2402C56.7022 69.2402 54.1976 69.2402 28.3127 69.2402C26.0344 69.2402 24.1382 67.3834 24.435 65.1245C26.45 49.7924 39.5678 37.957 55.4499 37.957C71.332 37.957 84.4498 49.7924 86.4648 65.1245Z" fill="white"/>
<path d="M71.3697 14.9934C71.8513 14.8889 72.3576 15.07 72.6763 15.5601C74.5334 18.4165 76.1036 24.856 73.5008 32.8292C73.1985 33.7567 72.413 34.4807 71.3878 34.5535C70.6436 34.6058 69.6282 34.6057 68.3859 34.4346L67.7131 37.4822C66.1167 36.8654 64.4616 36.3675 62.7593 35.995L70.3102 15.9582C70.5007 15.4529 70.9046 15.0954 71.3697 14.9934Z" fill="#F6C0C0"/>
<path d="M39.0584 19.0855C40.1108 18.6889 41.3064 19.0747 41.8824 20.0611C42.8423 21.7074 44.4182 24.6253 45.6236 27.9269C46.2935 29.761 45.6898 31.8644 43.9323 33.0177C43.6655 33.193 43.3936 33.361 43.1171 33.5206L44.8138 36.9025C43.1422 37.452 41.5282 38.1279 39.9822 38.9182L38.9785 35.0803C38.6532 35.1451 38.3382 35.1985 38.0338 35.2408C35.9528 35.5341 34.1108 34.3523 33.4036 32.5322C32.1307 29.2561 31.3884 26.024 31.0234 24.1528C30.8051 23.0316 31.4494 21.953 32.5018 21.5564L32.6885 21.4859C32.732 21.4694 32.7784 21.4624 32.8248 21.4644C32.8713 21.4664 32.9172 21.4778 32.9591 21.4979C33.0008 21.518 33.038 21.5464 33.0685 21.5812C33.0992 21.6162 33.1226 21.6572 33.137 21.7014L35.2198 28.0941C35.2904 28.3108 35.4443 28.4909 35.6475 28.5943C35.8507 28.6976 36.0867 28.7159 36.3035 28.6453C36.5203 28.5747 36.7003 28.4208 36.8037 28.2176C36.907 28.0144 36.9253 27.7784 36.8547 27.5616L34.7377 21.0649C34.7102 20.9807 34.7162 20.8889 34.7545 20.8091C34.7928 20.7294 34.8604 20.6677 34.9432 20.6365L36.6164 20.006C36.6992 19.9748 36.7907 19.9767 36.8722 20.0114C36.9536 20.0461 37.0186 20.1107 37.0535 20.192L39.7513 26.4706C39.7958 26.5741 39.8605 26.6678 39.9413 26.7465C40.022 26.8252 40.1173 26.8873 40.2219 26.9291C40.3268 26.971 40.4394 26.9924 40.5523 26.9909C40.665 26.9894 40.7763 26.9655 40.8799 26.9211C40.9837 26.8765 41.0778 26.8119 41.1566 26.7311C41.2353 26.6502 41.2974 26.5546 41.3392 26.4497C41.381 26.3449 41.4017 26.2329 41.4003 26.1201C41.3988 26.0072 41.375 25.8955 41.3305 25.7917L38.6756 19.6139C38.6573 19.5713 38.6475 19.5254 38.6474 19.479C38.6473 19.4325 38.6567 19.3861 38.675 19.3433C38.6932 19.3006 38.72 19.262 38.7535 19.2299C38.7871 19.1977 38.8269 19.173 38.8704 19.1567L39.0584 19.0855Z" fill="#F6C0C0"/>
</svg>
