<svg width="800" height="800" viewBox="0 0 800 800" fill="none" xmlns="http://www.w3.org/2000/svg">
<path d="M0 400C0 70.6 70.6 0 400 0C729.4 0 800 70.6 800 400C800 729.4 729.4 800 400 800C70.6 800 0 729.4 0 400Z" fill="url(#paint0_linear_194_127)"/>
<path d="M152.484 556.63C152.484 541.166 165.02 528.63 180.484 528.63H619.515C634.979 528.63 647.515 541.166 647.515 556.63V575.635C647.515 591.099 634.979 603.635 619.515 603.635H180.484C165.02 603.635 152.484 591.099 152.484 575.635V556.63Z" fill="white"/>
<path d="M628.833 473.633C630.993 490.062 617.202 503.566 600.632 503.566C412.378 503.566 394.163 503.566 205.909 503.566C189.34 503.566 175.549 490.062 177.708 473.633C192.362 362.127 287.764 276.052 403.271 276.052C518.777 276.052 614.179 362.127 628.833 473.633Z" fill="white"/>
<path d="M519.051 109.044C522.553 108.283 526.236 109.601 528.553 113.165C542.06 133.939 553.479 180.772 534.55 238.759C532.351 245.504 526.639 250.769 519.183 251.299C513.77 251.679 506.385 251.679 497.35 250.434L492.457 272.599C480.847 268.113 468.81 264.492 456.43 261.783L511.345 116.061C512.731 112.386 515.668 109.785 519.051 109.044Z" fill="#8ACBFF"/>
<path d="M284.061 138.805C291.715 135.92 300.411 138.726 304.599 145.9C311.58 157.873 323.042 179.094 331.808 203.105C336.68 216.444 332.29 231.742 319.508 240.129C317.568 241.405 315.59 242.626 313.58 243.787L325.919 268.383C313.762 272.379 302.024 277.295 290.78 283.042L283.48 255.13C281.114 255.601 278.823 255.99 276.609 256.297C261.475 258.431 248.079 249.836 242.935 236.599C233.678 212.773 228.28 189.266 225.625 175.657C224.037 167.503 228.723 159.659 236.377 156.774L237.735 156.262C238.051 156.142 238.389 156.091 238.726 156.105C239.064 156.12 239.398 156.203 239.703 156.35C240.006 156.496 240.277 156.702 240.499 156.955C240.722 157.21 240.892 157.508 240.997 157.829L256.144 204.321C256.658 205.898 257.777 207.207 259.255 207.959C260.732 208.711 262.449 208.844 264.026 208.33C265.602 207.817 266.912 206.698 267.664 205.22C268.415 203.742 268.548 202.025 268.035 200.449L252.638 153.2C252.438 152.588 252.482 151.92 252.76 151.34C253.039 150.76 253.531 150.311 254.132 150.085L266.301 145.499C266.904 145.272 267.569 145.286 268.162 145.538C268.754 145.791 269.226 146.26 269.48 146.852L289.1 192.514C289.424 193.267 289.895 193.949 290.482 194.521C291.07 195.093 291.762 195.545 292.524 195.849C293.286 196.154 294.105 196.309 294.926 196.298C295.746 196.288 296.556 196.114 297.309 195.791C298.063 195.467 298.748 194.997 299.321 194.409C299.894 193.821 300.345 193.125 300.649 192.363C300.953 191.6 301.104 190.786 301.093 189.965C301.083 189.144 300.91 188.332 300.586 187.577L281.278 142.648C281.144 142.337 281.073 142.004 281.073 141.666C281.072 141.328 281.14 140.991 281.273 140.68C281.405 140.369 281.6 140.088 281.844 139.854C282.088 139.621 282.378 139.441 282.694 139.322L284.061 138.805Z" fill="#8ACBFF"/>
<defs>
<linearGradient id="paint0_linear_194_127" x1="400" y1="800" x2="400" y2="0" gradientUnits="userSpaceOnUse">
<stop stop-color="#0D6EFD"/>
<stop offset="1" stop-color="#19ACFF"/>
</linearGradient>
</defs>
</svg>
