<svg width="800" height="800" viewBox="0 0 800 800" fill="none" xmlns="http://www.w3.org/2000/svg">
<path d="M0 400C0 70.6 70.6 0 400 0C729.4 0 800 70.6 800 400C800 729.4 729.4 800 400 800C70.6 800 0 729.4 0 400Z" fill="url(#paint0_linear_194_114)"/>
<path d="M662.122 344.433C663.77 343.147 664.593 342.505 665.571 342.331C666.55 342.157 667.534 342.474 669.503 343.107C698.724 352.507 713.744 359.45 715.716 370.435C718.273 384.726 697.758 400.282 656.736 431.37L487.037 559.974C446.014 591.063 425.5 606.61 397.452 611.636C369.403 616.661 344.763 609.207 295.498 594.292L185.76 561.07C136.499 546.156 111.866 538.691 109.303 524.401C108.039 517.336 112.416 509.966 122.119 500.56C123.545 499.179 124.257 498.488 125.224 498.213C125.322 498.184 125.431 498.158 125.532 498.138C126.517 497.94 127.509 498.24 129.494 498.841L239.237 532.063C263.277 539.341 283.373 545.461 301.103 548.936C319.502 552.542 338.736 554.018 361.064 550.019C383.392 546.018 400.914 537.959 416.917 528.191C432.338 518.777 449.058 506.056 469.075 490.886L638.787 362.276C647.193 355.905 655.031 349.968 662.122 344.433Z" fill="#8ACBFF"/>
<path fill-rule="evenodd" clip-rule="evenodd" d="M603.682 245.142C652.948 260.057 677.584 267.515 680.144 281.807C682.705 296.099 662.19 311.645 621.165 342.736L451.462 471.345C410.437 502.436 389.925 517.982 361.875 523.007C333.825 528.032 309.191 520.574 259.924 505.658L150.188 472.437C100.921 457.521 76.2857 450.064 73.7252 435.772C71.1648 421.48 91.6794 405.934 132.704 374.843L302.407 246.234C343.432 215.143 363.945 199.597 391.995 194.572C420.045 189.546 444.678 197.005 493.945 211.92L603.682 245.142ZM455.666 301.862C442.665 297.926 428.376 295.782 412.81 295.431C397.244 295.081 381.705 296.299 366.201 299.087C350.695 301.875 335.705 306.137 321.241 311.868C306.776 317.591 294.124 324.56 283.287 332.773C272.449 340.986 264.737 349.45 260.156 358.161C255.576 366.871 253.995 375.18 255.418 383.087C256.841 390.994 261.225 398.239 268.559 404.822C275.905 411.402 286.078 416.661 299.078 420.597C312.094 424.543 326.379 426.686 341.924 427.024C357.468 427.361 373.003 426.142 388.523 423.365C404.043 420.588 419.043 416.329 433.513 410.594C447.982 404.859 460.632 397.889 471.457 389.686C482.283 381.481 489.995 373.017 494.588 364.298C499.179 355.579 500.763 347.267 499.334 339.365C497.906 331.463 493.516 324.221 486.176 317.643C478.836 311.058 468.665 305.798 455.666 301.862Z" fill="white"/>
<path d="M425.646 324.601C428.421 325.442 429.242 326.885 428.097 328.93L387.644 402.593C386.75 404.568 384.491 405.844 380.873 406.42C377.254 406.997 374.655 406.513 373.08 404.971L352.442 383.012C352.01 382.472 351.304 382.055 350.336 381.762C349.367 381.469 348.283 381.344 347.089 381.392L296.712 381.852C293.13 381.841 291.11 380.925 290.651 379.106C290.192 377.287 291.628 375.763 294.962 374.534L416.528 325.428C419.829 324.035 422.87 323.76 425.646 324.601Z" fill="white"/>
<defs>
<linearGradient id="paint0_linear_194_114" x1="400" y1="800" x2="400" y2="0" gradientUnits="userSpaceOnUse">
<stop stop-color="#0D6EFD"/>
<stop offset="1" stop-color="#19ACFF"/>
</linearGradient>
</defs>
</svg>
