<svg width="110" height="110" viewBox="0 0 110 110" fill="none" xmlns="http://www.w3.org/2000/svg">
<path d="M0 55C0 9.7075 9.7075 0 55 0C100.292 0 110 9.7075 110 55C110 100.292 100.292 110 55 110C9.7075 110 0 100.292 0 55Z" fill="#4186F3"/>
<path d="M88.1397 49.5808C89.9047 48.243 90.7872 47.5742 91.8601 47.444C92.9331 47.3138 93.7863 47.6816 95.4926 48.4173C97.2747 49.1856 98.2324 49.9396 98.4111 50.9349C98.7627 52.9 95.9418 55.0389 90.3013 59.3135L66.9677 76.9965C61.3271 81.2713 58.5064 83.409 54.6498 84.1C50.793 84.7909 47.405 83.766 40.6311 81.7153L25.5422 77.1472C18.7687 75.0965 15.3817 74.0702 15.0293 72.1053C14.8554 71.1338 15.4573 70.1204 16.7915 68.8271C17.0594 68.5675 17.4485 68.4827 17.8055 68.5907L32.8953 73.1588C36.2007 74.1595 38.9639 75.001 41.4018 75.4788C43.9317 75.9746 46.5764 76.1776 49.6464 75.6277C52.7165 75.0776 55.1258 73.9695 57.3262 72.6264C59.4466 71.332 61.7456 69.5828 64.498 67.4969L87.8333 49.813C87.9361 49.7351 88.0382 49.6577 88.1397 49.5808Z" fill="#94BBF8"/>
<path fill-rule="evenodd" clip-rule="evenodd" d="M83.0063 33.7076C89.7804 35.7585 93.1678 36.7838 93.5199 38.749C93.872 40.7142 91.0512 42.8517 85.4103 47.1267L62.0761 64.8105C56.4352 69.0855 53.6147 71.2231 49.7578 71.9141C45.901 72.605 42.5138 71.5795 35.7396 69.5286L20.6509 64.9606C13.8767 62.9098 10.4893 61.8844 10.1373 59.9192C9.78521 57.954 12.606 55.8165 18.2469 51.5415L41.5811 33.8577C47.222 29.5827 50.0424 27.4451 53.8993 26.7542C57.7562 26.0632 61.1433 27.0888 67.9175 29.1396L83.0063 33.7076ZM62.6541 41.5066C60.8665 40.9654 58.9018 40.6706 56.7614 40.6224C54.6211 40.5742 52.4845 40.7418 50.3526 41.125C48.2206 41.5083 46.1595 42.0945 44.1707 42.8824C42.1817 43.6694 40.442 44.6276 38.952 45.7568C37.4618 46.8861 36.4014 48.0499 35.7715 49.2477C35.1417 50.4453 34.9243 51.5878 35.12 52.675C35.3157 53.7622 35.9185 54.7585 36.9269 55.6636C37.937 56.5684 39.3358 57.2915 41.1233 57.8326C42.9129 58.3752 44.8772 58.67 47.0146 58.7164C49.1518 58.7627 51.288 58.5951 53.4219 58.2133C55.556 57.8314 57.6185 57.2458 59.6081 56.4572C61.5976 55.6687 63.337 54.7104 64.8254 53.5824C66.3139 52.4543 67.3744 51.2904 68.0058 50.0915C68.6372 48.8927 68.855 47.7498 68.6585 46.6633C68.4621 45.5767 67.8584 44.581 66.8493 43.6764C65.84 42.7711 64.4415 42.0477 62.6541 41.5066Z" fill="white"/>
<path d="M58.5264 44.6332C58.9079 44.7489 59.0208 44.9472 58.8633 45.2285L53.3011 55.3571C53.1782 55.6287 52.8676 55.8041 52.3701 55.8834C51.8725 55.9626 51.5151 55.8961 51.2985 55.6841L48.4608 52.6648C48.4014 52.5905 48.3043 52.5332 48.1712 52.4928C48.038 52.4525 47.889 52.4354 47.7248 52.442L40.798 52.5052C40.3054 52.5037 40.0277 52.3778 39.9646 52.1277C39.9015 51.8775 40.0989 51.668 40.5574 51.4991L57.2727 44.7469C57.7265 44.5554 58.1446 44.5176 58.5264 44.6332Z" fill="white"/>
</svg>
