<svg width="110" height="110" viewBox="0 0 110 110" fill="none" xmlns="http://www.w3.org/2000/svg">
<path d="M0 55C0 9.7075 9.7075 0 55 0C100.292 0 110 9.7075 110 55C110 100.292 100.292 110 55 110C9.7075 110 0 100.292 0 55Z" fill="#FF920A"/>
<g clip-path="url(#clip0_23_21437)">
<rect x="25.8696" y="27" width="67.6304" height="56.5435" rx="6.65217" fill="white" fill-opacity="0.1"/>
<path d="M25.8696 30.1509C25.8696 27.4224 28.974 25.8546 31.1699 27.4741L66.5878 52.5948C68.3904 53.9242 68.3904 56.6191 66.5878 57.9485L31.1699 83.0692C28.974 84.6887 25.8696 83.1209 25.8696 80.3924V30.1509Z" fill="#FFCD8F" fill-opacity="0.3"/>
</g>
<path d="M17 36.3725C17 33.7506 19.8921 32.1596 22.1067 33.5631L51.9262 52.4628C53.9869 53.7689 53.9869 56.7754 51.9262 58.0815L22.1067 76.9812C19.8921 78.3848 17 76.7937 17 74.1719V36.3725Z" fill="white" fill-opacity="0.5"/>
<defs>
<clipPath id="clip0_23_21437">
<rect x="25.8696" y="27" width="67.6304" height="56.5435" rx="6.65217" fill="white"/>
</clipPath>
</defs>
</svg>
