<svg width="800" height="800" viewBox="0 0 800 800" fill="none" xmlns="http://www.w3.org/2000/svg">
<path d="M0 400C0 70.6 70.6 0 400 0C729.4 0 800 70.6 800 400C800 729.4 729.4 800 400 800C70.6 800 0 729.4 0 400Z" fill="#259393"/>
<path d="M0 400C0 70.6 70.6 0 400 0C729.4 0 800 70.6 800 400C800 729.4 729.4 800 400 800C70.6 800 0 729.4 0 400Z" fill="url(#paint0_linear_196_3542)" style="mix-blend-mode:soft-light"/>
<g clip-path="url(#clip0_196_3542)">
<rect x="188.141" y="196.363" width="491.858" height="411.225" rx="48.3794" fill="white"/>
<path d="M188.141 219.278C188.141 199.434 210.718 188.032 226.688 199.81L484.273 382.506C497.383 392.175 497.383 411.774 484.273 421.442L226.688 604.139C210.718 615.917 188.141 604.515 188.141 584.671V219.278Z" fill="#95DADA"/>
</g>
<path d="M123.637 264.528C123.637 245.46 144.67 233.888 160.776 244.096L377.645 381.548C392.632 391.047 392.632 412.913 377.645 422.412L160.776 559.864C144.67 570.072 123.637 558.5 123.637 539.432V264.528Z" fill="white"/>
<defs>
<linearGradient id="paint0_linear_196_3542" x1="400" y1="0" x2="400" y2="800" gradientUnits="userSpaceOnUse">
<stop stop-color="white"/>
<stop offset="1" stop-color="white" stop-opacity="0"/>
</linearGradient>
<clipPath id="clip0_196_3542">
<rect x="188.141" y="196.363" width="491.858" height="411.225" rx="48.3794" fill="white"/>
</clipPath>
</defs>
</svg>
