<svg width="110" height="110" viewBox="0 0 110 110" fill="none" xmlns="http://www.w3.org/2000/svg">
<path d="M0 55C0 9.7075 9.7075 0 55 0C100.292 0 110 9.7075 110 55C110 100.292 100.292 110 55 110C9.7075 110 0 100.292 0 55Z" fill="#DFF2FC"/>
<path d="M79.9548 66.3402C80.5476 65.8506 81.3496 65.6601 82.0659 65.9396C86.4388 67.646 90.2069 70.2121 93.0359 73.3698C93.8598 74.2896 93.5067 76.9505 92.3573 77.3795C89.442 78.4671 86.3539 79.027 83.2356 79.027H55.6885C52.5707 79.027 49.4825 78.7863 46.568 78.3188C45.4195 78.1345 48.7327 77.7741 49.5561 77.3795C52.3624 76.0348 52.4267 74.1588 56.7551 73.4265C57.4706 73.3055 58.2734 73.3862 58.868 73.5956C61.8217 74.6361 65.5378 70.1385 69.3922 70.1386C73.2635 70.1385 76.9948 68.7847 79.9548 66.3402Z" fill="#ADDFFA"/>
<path d="M60.4219 69.2407C61.1677 68.6248 62.1766 68.3851 63.0778 68.7367C68.5793 70.8835 73.3197 74.1118 76.8788 78.0844C77.9154 79.2415 77.4711 82.5891 76.0251 83.1288C72.3574 84.4971 68.4725 85.2015 64.5494 85.2015H29.8933C25.9709 85.2015 22.0858 84.496 18.4191 83.1258C16.9743 82.5854 16.5305 79.2385 17.5664 78.0819C21.0969 74.1406 25.7898 70.9324 31.2351 68.7861C32.1353 68.4313 33.1453 68.6679 33.8933 69.2817C37.6094 72.3314 42.2844 74.0192 47.1334 74.0193C52.0038 74.0192 56.6981 72.316 60.4219 69.2407Z" fill="#51BCF5"/>
<path d="M67.258 30.7539C70.9526 30.7539 74.4958 32.1927 77.1083 34.7535C79.7207 37.3144 81.1885 41.3022 81.1885 44.9238V53.117C81.1884 56.7384 79.7206 60.2114 77.1083 62.7722C74.4958 65.333 70.9526 66.7718 67.258 66.7718C66.6192 66.7718 65.735 66.6463 64.9248 66.5008C63.8826 66.3137 63.3866 65.1566 63.8956 64.2457C65.3921 61.5677 67.9392 56.512 67.9392 53.125V42.8175C67.9392 39.552 67.0909 35.8581 65.5149 33.0466C64.9732 32.0801 65.4766 30.8214 66.6002 30.7692C66.8188 30.759 67.0382 30.7539 67.258 30.7539Z" fill="#51BCF5"/>
<path d="M47.1326 25C51.7129 25 56.1057 26.8195 59.3445 30.0583C62.5833 33.2972 64.4028 37.6899 64.4028 42.2703V52.6324C64.4028 57.2128 62.5833 61.6056 59.3445 64.8444C56.1057 68.0832 51.7129 69.9027 47.1326 69.9027C42.5522 69.9027 38.1595 68.0832 34.9207 64.8444C31.6818 61.6056 29.8623 57.2128 29.8623 52.6324V42.2703C29.8623 37.6899 31.6818 33.2972 34.9207 30.0583C38.1595 26.8195 42.5522 25 47.1326 25Z" fill="#0A6DA3"/>
</svg>
