<svg width="1283" height="1283" viewBox="0 0 1283 1283" fill="none" xmlns="http://www.w3.org/2000/svg">
<path d="M0 243.328C0 108.941 108.941 0 243.328 0H1039.67C1174.06 0 1283 108.941 1283 243.328V1039.67C1283 1174.06 1174.06 1283 1039.67 1283H243.328C108.941 1283 0 1174.06 0 1039.67V243.328Z" fill="url(#paint0_linear_186_11)"/>
<path d="M922.083 479.367C931.074 475.961 939.876 484.764 936.47 493.757L912.067 558.206C908.394 567.906 894.633 567.786 891.129 558.023L884.111 538.469C882.985 535.332 880.516 532.862 877.378 531.735L857.828 524.717C848.067 521.213 847.947 507.448 857.646 503.774L922.083 479.367Z" fill="white"/>
<path fill-rule="evenodd" clip-rule="evenodd" d="M896.139 319.5C1007.07 319.5 1097 409.444 1097 520.396C1097 631.348 1007.07 721.292 896.139 721.292C853.144 721.292 813.306 707.78 780.634 684.771C776.395 681.786 770.822 681.465 766.409 684.187C744.642 697.613 681.097 736.105 645.063 747.8C644.619 747.944 644.154 748.089 643.67 748.237V814.765C643.669 919.553 557.456 1004.5 452.687 1004.5C357.842 1004.5 275.923 945.326 243.195 861.877C236.689 845.288 249.987 828.716 267.803 828.716H325.829C338.05 828.716 348.478 836.938 354.682 847.469C371.462 875.954 401.849 905.641 434.44 905.641C512.553 905.641 523.712 851.521 523.712 802.209V765.128C457.704 768.176 381.595 761.975 335.351 729.737C320.706 720.695 286.29 696.894 262.174 659.908C230.092 612.474 229.394 566.435 228 538.533C228 426.81 318.553 336.242 430.255 336.241H599.034C623.686 336.241 643.67 356.229 643.67 380.885L643.669 559.798C643.669 566.385 639.824 572.405 633.71 574.852C604.246 586.647 573.293 592.821 541.988 596.58C532.198 597.756 523.712 590.001 523.712 580.138V460.406C523.712 454.243 518.716 449.246 512.553 449.246H431.651C382.347 449.246 342.38 489.221 342.38 538.533C354.432 717.581 644.765 656.274 701.929 587.165C704.136 584.497 704.53 580.936 703.546 577.617C698.168 559.482 695.279 540.276 695.279 520.396C695.279 409.444 785.207 319.5 896.139 319.5ZM896.139 417.158C839.132 417.158 792.92 463.379 792.919 520.396C792.919 577.413 839.132 623.635 896.139 623.635C953.146 623.635 999.359 577.413 999.359 520.396C999.359 463.379 953.146 417.158 896.139 417.158Z" fill="white"/>
<defs>
<linearGradient id="paint0_linear_186_11" x1="641.5" y1="1283" x2="641.5" y2="0" gradientUnits="userSpaceOnUse">
<stop stop-color="#0D6EFD"/>
<stop offset="1" stop-color="#19ACFF"/>
</linearGradient>
</defs>
</svg>
