<svg width="110" height="110" viewBox="0 0 110 110" fill="none" xmlns="http://www.w3.org/2000/svg">
<path d="M0 55C0 9.7075 9.7075 0 55 0C100.292 0 110 9.7075 110 55C110 100.292 100.292 110 55 110C9.7075 110 0 100.292 0 55Z" fill="#4D61FE"/>
<path d="M59.0679 45.6401C43.1043 45.6402 39.6828 48.5627 39.6828 62.1982V63.1642C39.6828 76.7997 43.1043 79.7223 59.0679 79.7223H67.1387L81.2305 84.9218C82.0446 85.2221 82.9089 84.6197 82.9089 83.752V78.2428C88.1476 76.2594 89.5591 71.9215 89.5591 63.1642V62.1982C89.5591 48.5627 86.1375 45.6402 70.174 45.6401H59.0679Z" fill="#AEB7FF"/>
<path d="M55.0996 29.9966C74.4806 29.9966 78.6346 33.5448 78.6346 50.0993V51.2721C78.6346 67.8266 74.4806 71.3748 55.0996 71.3748H45.3011L28.1925 77.6874C27.2041 78.052 26.1549 77.3207 26.1549 76.2672V69.5786C19.7947 67.1706 18.0811 61.9041 18.0811 51.2721V50.0993C18.0811 33.5448 22.2351 29.9966 41.616 29.9966H55.0996Z" fill="white"/>
<path d="M86.1676 33.1241C88.9615 33.1241 91.2265 35.3832 91.2265 38.17C91.2265 40.9569 88.9615 43.216 86.1676 43.216C83.3736 43.216 81.1087 40.9569 81.1087 38.17C81.1087 35.3832 83.3736 33.1241 86.1676 33.1241Z" fill="#AEB7FF"/>
<path d="M78.4461 25.1567C80.2107 25.1567 81.6412 26.5836 81.6412 28.3437C81.6412 30.1038 80.2107 31.5306 78.4461 31.5306C76.6815 31.5306 75.251 30.1038 75.251 28.3437C75.251 26.5836 76.6815 25.1567 78.4461 25.1567Z" fill="#AEB7FF"/>
</svg>
