<svg width="800" height="800" viewBox="0 0 800 800" fill="none" xmlns="http://www.w3.org/2000/svg">
<path d="M0 400C0 70.6 70.6 0 400 0C729.4 0 800 70.6 800 400C800 729.4 729.4 800 400 800C70.6 800 0 729.4 0 400Z" fill="#40B7FC"/>
<path d="M0 400C0 70.6 70.6 0 400 0C729.4 0 800 70.6 800 400C800 729.4 729.4 800 400 800C70.6 800 0 729.4 0 400Z" fill="url(#paint0_linear_195_262)" style="mix-blend-mode:soft-light"/>
<path d="M581.487 482.475C585.799 478.914 591.631 477.529 596.841 479.561C628.644 491.971 656.048 510.634 676.623 533.599C682.615 540.288 680.047 559.64 671.688 562.76C650.485 570.67 628.027 574.742 605.348 574.742H405.005C382.33 574.742 359.871 572.992 338.674 569.592C330.322 568.251 354.418 565.63 360.406 562.76C380.816 552.981 381.283 539.337 412.762 534.012C417.966 533.131 423.805 533.718 428.129 535.241C449.611 542.808 476.637 510.099 504.668 510.099C532.824 510.099 559.96 500.253 581.487 482.475Z" fill="#ABE8FE"/>
<path d="M439.432 503.569C444.857 499.089 452.194 497.346 458.748 499.903C498.759 515.516 533.235 538.994 559.119 567.886C566.657 576.302 563.427 600.648 552.91 604.573C526.236 614.524 497.982 619.647 469.451 619.647H217.406C188.88 619.647 160.624 614.516 133.958 604.551C123.449 600.621 120.223 576.28 127.756 567.868C153.433 539.204 187.563 515.872 227.165 500.262C233.712 497.682 241.057 499.402 246.497 503.867C273.523 526.046 307.523 538.321 342.789 538.322C378.21 538.322 412.35 525.934 439.432 503.569Z" fill="white"/>
<path d="M489.146 223.665C516.015 223.665 541.785 234.129 560.784 252.753C579.784 271.378 590.459 300.38 590.459 326.719V386.305C590.458 412.643 579.783 437.901 560.784 456.525C541.785 475.149 516.015 485.613 489.146 485.613C484.5 485.613 478.069 484.7 472.177 483.642C464.597 482.281 460.99 473.866 464.692 467.242C475.576 447.765 494.1 410.996 494.1 386.364V311.4C494.1 287.651 487.93 260.786 476.469 240.339C472.529 233.31 476.19 224.156 484.362 223.776C485.952 223.702 487.547 223.665 489.146 223.665Z" fill="#ABE8FE"/>
<path d="M342.774 181.818C376.086 181.818 408.033 195.051 431.588 218.606C455.143 242.161 468.376 274.109 468.376 307.42V382.782C468.376 416.093 455.143 448.041 431.588 471.596C408.033 495.151 376.086 508.384 342.774 508.384C309.462 508.384 277.515 495.151 253.96 471.596C230.405 448.041 217.172 416.093 217.172 382.782V307.42C217.172 274.109 230.405 242.161 253.96 218.606C277.515 195.051 309.462 181.818 342.774 181.818Z" fill="white"/>
<defs>
<linearGradient id="paint0_linear_195_262" x1="400" y1="0" x2="400" y2="800" gradientUnits="userSpaceOnUse">
<stop stop-color="white"/>
<stop offset="1" stop-color="white" stop-opacity="0"/>
</linearGradient>
</defs>
</svg>
