<svg width="800" height="800" viewBox="0 0 800 800" fill="none" xmlns="http://www.w3.org/2000/svg">
<path d="M0 400C0 70.6 70.6 0 400 0C729.4 0 800 70.6 800 400C800 729.4 729.4 800 400 800C70.6 800 0 729.4 0 400Z" fill="#259393"/>
<path d="M0 400C0 70.6 70.6 0 400 0C729.4 0 800 70.6 800 400C800 729.4 729.4 800 400 800C70.6 800 0 729.4 0 400Z" fill="url(#paint0_linear_195_244)" style="mix-blend-mode:soft-light"/>
<path d="M323.551 250.794C323.551 225.982 341.216 204.686 365.601 200.101L575.898 160.562C607.649 154.593 637.01 178.948 637.01 211.255V595.693C637.01 628 607.649 652.355 575.898 646.386L365.601 606.847C341.216 602.262 323.551 580.966 323.551 556.154V250.794Z" fill="#99D7D7"/>
<path d="M160 236.952C160 212.09 177.735 190.766 202.181 186.235L439.736 142.21C471.449 136.332 500.716 160.674 500.716 192.927V614.036C500.716 646.289 471.449 670.63 439.736 664.753L202.181 620.727C177.735 616.197 160 594.873 160 570.01V236.952Z" fill="white"/>
<defs>
<linearGradient id="paint0_linear_195_244" x1="400" y1="0" x2="400" y2="800" gradientUnits="userSpaceOnUse">
<stop stop-color="white"/>
<stop offset="1" stop-color="white" stop-opacity="0"/>
</linearGradient>
</defs>
</svg>
