<svg width="110" height="110" viewBox="0 0 110 110" fill="none" xmlns="http://www.w3.org/2000/svg">
<path d="M0 55C0 9.7075 9.7075 0 55 0C100.292 0 110 9.7075 110 55C110 100.292 100.292 110 55 110C9.7075 110 0 100.292 0 55Z" fill="#D2F9EE"/>
<path d="M44.7251 33.4122C44.7251 30.0005 47.1541 27.0723 50.507 26.4419L80.8107 20.7444C85.1764 19.9236 89.2135 23.2724 89.2135 27.7146V82.8276C89.2135 87.2698 85.1764 90.6186 80.8107 89.7978L50.5069 84.1003C47.1541 83.4699 44.7251 80.5417 44.7251 77.13V33.4122Z" fill="#68DFB1"/>
<path d="M21.5137 31.447C21.5137 28.0285 23.9523 25.0964 27.3136 24.4734L61.4859 18.1404C65.8464 17.3322 69.8707 20.6792 69.8707 25.114V85.43C69.8707 89.8648 65.8464 93.2118 61.4859 92.4037L27.3136 86.0706C23.9523 85.4476 21.5137 82.5155 21.5137 79.097V31.447Z" fill="#17A57D"/>
</svg>
