<svg width="110" height="110" viewBox="0 0 110 110" fill="none" xmlns="http://www.w3.org/2000/svg">
<path d="M0 55C0 9.7075 9.7075 0 55 0C100.292 0 110 9.7075 110 55C110 100.292 100.292 110 55 110C9.7075 110 0 100.292 0 55Z" fill="white"/>
<path d="M44.488 34.4842C44.488 31.0726 46.917 28.1444 50.2699 27.514L79.1858 22.0774C83.5515 21.2566 87.5887 24.6054 87.5887 29.0476V81.9079C87.5887 86.3501 83.5515 89.699 79.1858 88.8781L50.2699 83.4415C46.917 82.8111 44.488 79.8829 44.488 76.4713V34.4842Z" fill="#D3D3D3"/>
<path d="M22.0002 32.5811C22.0002 29.1625 24.4389 26.2304 27.8002 25.6075L60.464 19.5539C64.8245 18.7458 68.8487 22.0928 68.8487 26.5275V84.43C68.8487 88.8648 64.8245 92.2118 60.464 91.4037L27.8002 85.3501C24.4389 84.7272 22.0002 81.7951 22.0002 78.3765V32.5811Z" fill="#1A1A1A"/>
</svg>
